<?xml version="1.0" encoding="UTF-8"?>
<svg width="250" height="150" viewBox="0 0 250 150" xmlns="http://www.w3.org/2000/svg">
  <defs>
    <linearGradient id="communityGradient" x1="0%" y1="0%" x2="100%" y2="100%">
      <stop offset="0%" stop-color="#00c2ff"/>
      <stop offset="100%" stop-color="#5d3fd3"/>
    </linearGradient>
  </defs>

  <rect width="250" height="150" fill="url(#communityGradient)" rx="8" ry="8"/>

  <!-- 聊天气泡 / 社区 -->
  <g fill="#ffffff">
    <path d="M78 54c0-8 6-14 14-14h66c8 0 14 6 14 14v24c0 8-6 14-14 14H118l-18 14c-1.2.9-2.8-.1-2.6-1.6l2-12H92c-8 0-14-6-14-14V54z" opacity="0.18"/>
    <path d="M92 42h66c6.6 0 12 5.4 12 12v24c0 6.6-5.4 12-12 12h-41.3l-18.2 13.8 2.1-13.8H92c-6.6 0-12-5.4-12-12V54c0-6.6 5.4-12 12-12z" fill="none" stroke="#ffffff" stroke-width="2"/>
    <circle cx="108" cy="66" r="3.3"/>
    <circle cx="125" cy="66" r="3.3"/>
    <circle cx="142" cy="66" r="3.3"/>
    <path d="M106 84c10 10 28 10 38 0" fill="none" stroke="#ffffff" stroke-width="2" stroke-linecap="round" opacity="0.85"/>
  </g>

  <text x="125" y="130" font-family="Arial, sans-serif" font-size="14" fill="white" text-anchor="middle">社区讨论</text>
</svg>

