<svg width="120" height="160" viewBox="0 0 120 160" xmlns="http://www.w3.org/2000/svg" role="img" aria-label="星光奇迹封面占位图">
  <defs>
    <linearGradient id="bg" x1="0" y1="0" x2="1" y2="1">
      <stop offset="0%" stop-color="#5d3fd3"/>
      <stop offset="55%" stop-color="#00c2ff"/>
      <stop offset="100%" stop-color="#ff5757"/>
    </linearGradient>
    <radialGradient id="glow" cx="30%" cy="25%" r="70%">
      <stop offset="0%" stop-color="rgba(255,255,255,0.85)"/>
      <stop offset="45%" stop-color="rgba(255,255,255,0.18)"/>
      <stop offset="100%" stop-color="rgba(255,255,255,0)"/>
    </radialGradient>
  </defs>

  <rect x="2" y="2" width="116" height="156" rx="16" fill="url(#bg)" stroke="rgba(255,255,255,0.35)" stroke-width="2"/>
  <rect x="2" y="2" width="116" height="156" rx="16" fill="url(#glow)"/>

  <g opacity="0.85">
    <circle cx="20" cy="28" r="1.4" fill="rgba(255,255,255,0.85)"/>
    <circle cx="86" cy="22" r="1.1" fill="rgba(255,255,255,0.65)"/>
    <circle cx="100" cy="58" r="1.6" fill="rgba(255,255,255,0.75)"/>
    <circle cx="44" cy="62" r="1.0" fill="rgba(255,255,255,0.55)"/>
    <circle cx="18" cy="96" r="1.0" fill="rgba(255,255,255,0.55)"/>
    <circle cx="96" cy="118" r="1.2" fill="rgba(255,255,255,0.65)"/>
  </g>

  <g opacity="0.9" transform="translate(60 78)">
    <path d="M0-22 L4-8 L18-8 L6 0 L10 14 L0 6 L-10 14 L-6 0 L-18-8 L-4-8 Z" fill="rgba(255,255,255,0.65)"/>
    <circle cx="0" cy="-34" r="3.2" fill="rgba(255,255,255,0.8)"/>
  </g>

  <g transform="translate(12 120)" opacity="0.95">
    <rect x="0" y="0" width="96" height="28" rx="10" fill="rgba(12,16,28,0.35)" stroke="rgba(255,255,255,0.28)"/>
    <text x="48" y="19" text-anchor="middle" font-size="12" font-weight="800" fill="rgba(255,255,255,0.92)" font-family="system-ui, -apple-system, Segoe UI, PingFang SC, Microsoft YaHei, sans-serif">
      星光奇迹
    </text>
  </g>
</svg>
