<svg width="300" height="200" viewBox="0 0 300 200" xmlns="http://www.w3.org/2000/svg" role="img" aria-label="界面截图占位图">
  <defs>
    <linearGradient id="bg" x1="0" y1="0" x2="1" y2="1">
      <stop offset="0%" stop-color="#0b1020"/>
      <stop offset="45%" stop-color="#202a55"/>
      <stop offset="100%" stop-color="#5d3fd3"/>
    </linearGradient>
    <linearGradient id="panel" x1="0" y1="0" x2="1" y2="1">
      <stop offset="0%" stop-color="rgba(255,255,255,0.22)"/>
      <stop offset="100%" stop-color="rgba(255,255,255,0.08)"/>
    </linearGradient>
  </defs>

  <rect x="2" y="2" width="296" height="196" rx="18" fill="url(#bg)" stroke="rgba(255,255,255,0.28)" stroke-width="2"/>

  <rect x="18" y="20" width="264" height="26" rx="12" fill="rgba(255,255,255,0.14)"/>
  <circle cx="34" cy="33" r="5" fill="rgba(255,87,87,0.85)"/>
  <circle cx="50" cy="33" r="5" fill="rgba(251,191,36,0.85)"/>
  <circle cx="66" cy="33" r="5" fill="rgba(74,222,128,0.85)"/>

  <rect x="18" y="58" width="164" height="120" rx="16" fill="url(#panel)" stroke="rgba(255,255,255,0.14)"/>
  <rect x="194" y="58" width="88" height="56" rx="16" fill="rgba(255,255,255,0.12)" stroke="rgba(255,255,255,0.14)"/>
  <rect x="194" y="122" width="88" height="56" rx="16" fill="rgba(255,255,255,0.10)" stroke="rgba(255,255,255,0.14)"/>

  <g opacity="0.9">
    <rect x="34" y="76" width="132" height="10" rx="6" fill="rgba(255,255,255,0.55)"/>
    <rect x="34" y="96" width="104" height="10" rx="6" fill="rgba(255,255,255,0.32)"/>
    <rect x="34" y="116" width="120" height="10" rx="6" fill="rgba(255,255,255,0.32)"/>
    <rect x="34" y="136" width="92" height="10" rx="6" fill="rgba(255,255,255,0.32)"/>
  </g>

  <g transform="translate(206 72)" opacity="0.95">
    <path d="M26 0l7.5 15.5L50 18l-12 11.5L40.5 46 26 38.2 11.5 46 14 29.5 2 18l16.5-2.5z" fill="rgba(255,255,255,0.65)"/>
  </g>

  <text x="150" y="188" text-anchor="middle" font-size="12" font-weight="700" fill="rgba(255,255,255,0.75)" font-family="system-ui, -apple-system, Segoe UI, PingFang SC, Microsoft YaHei, sans-serif">
    示例占位图（可替换为真实截图）
  </text>
</svg>
